<svg width="20" height="20" viewBox="0 0 20 20" fill="none" xmlns="http://www.w3.org/2000/svg">
<path d="M7.61827 17.9881C6.22198 17.5723 4.9791 16.8006 3.99497 15.7779C4.3621 15.3428 4.58335 14.7806 4.58335 14.1667C4.58335 12.786 3.46407 11.6667 2.08335 11.6667C1.99983 11.6667 1.91727 11.6708 1.83585 11.6788C1.72493 11.1366 1.66669 10.5751 1.66669 10.0001C1.66669 9.12897 1.80034 8.2891 2.04827 7.4998C2.05994 7.49997 2.07164 7.50005 2.08335 7.50005C3.46407 7.50005 4.58335 6.38076 4.58335 5.00005C4.58335 4.60368 4.4911 4.22889 4.32694 3.89589C5.29065 2.9998 6.4669 2.32919 7.77173 1.96799C8.18519 2.77842 9.02781 3.3334 10 3.3334C10.9722 3.3334 11.8149 2.77842 12.2283 1.96799C13.5331 2.32919 14.7094 2.9998 15.6731 3.89589C15.5089 4.22889 15.4167 4.60368 15.4167 5.00005C15.4167 6.38076 16.536 7.50005 17.9167 7.50005C17.9284 7.50005 17.9401 7.49997 17.9518 7.4998C18.1997 8.2891 18.3334 9.12897 18.3334 10.0001C18.3334 10.5751 18.2751 11.1366 18.1642 11.6788C18.0828 11.6708 18.0002 11.6667 17.9167 11.6667C16.536 11.6667 15.4167 12.786 15.4167 14.1667C15.4167 14.7806 15.6379 15.3428 16.0051 15.7779C15.0209 16.8006 13.7781 17.5723 12.3818 17.9881C12.0595 16.98 11.115 16.2501 10 16.2501C8.88502 16.2501 7.94052 16.98 7.61827 17.9881Z" stroke="#B1B1B1" stroke-width="1.66667" stroke-linejoin="round"/>
<path d="M9.99998 12.9167C11.6108 12.9167 12.9166 11.6108 12.9166 10C12.9166 8.38918 11.6108 7.08334 9.99998 7.08334C8.38915 7.08334 7.08331 8.38918 7.08331 10C7.08331 11.6108 8.38915 12.9167 9.99998 12.9167Z" stroke="#B1B1B1" stroke-width="1.66667" stroke-linejoin="round"/>
</svg>
